<?xml version="1.0" standalone="no"?>
<!DOCTYPE svg PUBLIC "-//W3C//DTD SVG 20010904//EN"
 "http://www.w3.org/TR/2001/REC-SVG-20010904/DTD/svg10.dtd">
<svg version="1.0" xmlns="http://www.w3.org/2000/svg"
 width="300.000000pt" height="300.000000pt" viewBox="0 0 300.000000 300.000000"
 preserveAspectRatio="xMidYMid meet">

<g transform="translate(0.000000,300.000000) scale(0.100000,-0.100000)"
fill="#000000" stroke="none">
<path d="M1152 2239 c-155 -30 -285 -161 -323 -325 -15 -66 -15 -219 1 -285
30 -129 110 -234 213 -283 92 -43 192 -53 335 -33 66 9 127 20 136 23 14 5 16
34 16 220 l0 214 -60 0 -60 0 0 -170 0 -169 -37 -8 c-21 -4 -74 -8 -118 -8
-137 0 -228 61 -277 185 -18 46 -22 76 -23 175 0 112 2 124 29 182 31 69 95
135 152 159 81 34 237 24 323 -21 l28 -14 20 54 20 54 -47 20 c-85 37 -228 50
-328 30z"/>
<path d="M1394 1985 c-38 -7 -84 -20 -101 -29 l-32 -16 16 -47 c9 -27 17 -49
18 -50 1 -2 28 7 61 19 43 15 85 21 154 22 85 1 101 -2 152 -27 104 -51 156
-145 165 -298 11 -179 -57 -318 -184 -376 -57 -25 -202 -23 -271 5 -29 12 -57
22 -61 22 -13 0 -43 -92 -33 -102 20 -20 135 -50 212 -55 284 -19 470 169 471
473 0 117 -12 175 -53 257 -88 177 -266 247 -514 202z"/>
<path d="M1016 959 c-31 -25 -34 -61 -6 -89 36 -36 94 -22 88 21 -2 16 -11 25
-25 27 -26 4 -31 -13 -7 -22 20 -8 8 -26 -17 -26 -11 0 -24 11 -31 26 -11 23
-10 29 10 44 12 10 31 16 42 13 24 -6 27 12 4 21 -24 9 -29 8 -58 -15z"/>
<path d="M1342 939 c-28 -65 -35 -89 -24 -89 6 0 12 7 16 15 8 21 53 19 65 -2
21 -38 21 -2 0 49 -31 75 -36 77 -57 27z m38 -30 c0 -5 -7 -9 -15 -9 -15 0
-20 12 -9 23 8 8 24 -1 24 -14z"/>
<path d="M1720 967 c-31 -16 -40 -76 -15 -101 18 -17 75 -22 75 -6 0 6 -11 10
-24 10 -30 0 -49 22 -44 52 2 18 10 24 36 26 34 3 42 16 16 26 -19 7 -14 8
-44 -7z"/>
<path d="M1130 924 c-24 -55 -27 -90 -6 -61 7 9 23 17 36 17 13 0 29 -8 37
-17 13 -17 14 -16 9 8 -9 41 -35 99 -46 99 -5 0 -18 -21 -30 -46z m40 -9 c0
-8 -7 -15 -15 -15 -9 0 -12 6 -9 15 4 8 10 15 15 15 5 0 9 -7 9 -15z"/>
<path d="M1230 910 l0 -60 35 0 c19 0 35 5 35 10 0 6 -11 10 -25 10 -23 0 -25
3 -25 50 0 28 -4 50 -10 50 -6 0 -10 -27 -10 -60z"/>
<path d="M1430 965 c0 -3 7 -16 16 -30 14 -22 14 -26 -2 -50 -21 -32 -14 -42
11 -15 l18 20 24 -22 c18 -17 23 -18 23 -6 0 9 -7 21 -15 28 -19 16 -19 20 4
50 l19 24 21 -24 c11 -14 20 -37 21 -52 0 -15 5 -30 10 -33 6 -3 10 4 10 16 0
12 10 37 21 56 25 40 16 59 -11 24 l-18 -24 -13 21 c-18 28 -56 28 -79 0 l-17
-22 -12 22 c-10 20 -31 31 -31 17z"/>
<path d="M1810 915 c-13 -31 -20 -58 -17 -62 4 -3 9 2 13 11 8 21 53 21 70 -1
7 -10 15 -15 18 -12 8 8 -41 119 -53 119 -5 0 -19 -25 -31 -55z m44 0 c3 -9 0
-15 -9 -15 -8 0 -15 7 -15 15 0 8 4 15 9 15 5 0 11 -7 15 -15z"/>
<path d="M1910 910 c0 -33 4 -60 10 -60 6 0 10 11 10 25 0 18 5 25 20 25 13 0
24 -10 30 -25 5 -14 14 -25 20 -25 12 0 12 2 1 33 -5 13 -5 30 -1 37 16 26 -8
50 -50 50 l-40 0 0 -60z m68 23 c-2 -10 -13 -19 -26 -21 -17 -3 -22 2 -22 17
0 16 6 21 26 21 19 0 25 -5 22 -17z"/>
</g>
</svg>
